<svg width="23" height="24" viewBox="0 0 23 24" fill="none" xmlns="http://www.w3.org/2000/svg">
<path opacity="0.4" d="M19.9621 8.17623L13.685 3.15456C12.4583 2.17706 10.5417 2.16748 9.32457 3.14498L3.04748 8.17623C2.14665 8.89498 1.6004 10.3325 1.79207 11.4633L2.99957 18.6891C3.27748 20.3087 4.78207 21.5833 6.42082 21.5833H16.5792C18.1987 21.5833 19.7321 20.28 20.01 18.6796L21.2175 11.4537C21.39 10.3325 20.8437 8.89498 19.9621 8.17623Z" fill="#292D32"/>
<path d="M11.5 18.4688C11.1071 18.4688 10.7812 18.1429 10.7812 17.75V14.875C10.7812 14.4821 11.1071 14.1562 11.5 14.1562C11.8929 14.1562 12.2188 14.4821 12.2188 14.875V17.75C12.2188 18.1429 11.8929 18.4688 11.5 18.4688Z" fill="#292D32"/>
</svg>
