<svg width="25" height="24" viewBox="0 0 25 24" fill="none" xmlns="http://www.w3.org/2000/svg">
<path opacity="0.4" d="M12.6667 5.30001V21.33C12.8367 21.33 13.0166 21.3 13.1566 21.22L13.1967 21.2C15.1167 20.15 18.4666 19.05 20.6366 18.76L20.9267 18.72C21.8867 18.6 22.6667 17.7 22.6667 16.74V4.66C22.6667 3.47 21.6967 2.57001 20.5067 2.67001C18.4067 2.84001 15.2267 3.90003 13.4467 5.01003L13.1967 5.16C13.0467 5.25 12.8567 5.30001 12.6667 5.30001Z" fill="#292D32"/>
<path d="M2.66666 4.66996V16.74C2.66666 17.7 3.44665 18.5999 4.40665 18.7199L4.73666 18.76C6.91666 19.05 10.2767 20.1599 12.1967 21.2199C12.3267 21.2999 12.4867 21.33 12.6667 21.33V5.29996C12.4767 5.29996 12.2866 5.24995 12.1366 5.15995L11.9666 5.04996C10.1866 3.92996 6.99664 2.85997 4.89664 2.67997H4.83664C3.64664 2.57997 2.66666 3.46996 2.66666 4.66996Z" fill="#292D32"/>
<path d="M19.6667 2.78003V7.07001C19.6667 7.47001 19.2266 7.70999 18.8866 7.48999L17.6667 6.67999L16.4467 7.48999C16.1167 7.70999 15.6667 7.47001 15.6667 7.07001V3.91998C16.9767 3.39998 18.4367 2.98003 19.6667 2.78003Z" fill="#292D32"/>
</svg>
